solid MintCrisprV0.1
facet normal 1.0 8.311480159088536e-16 -7.676082469361487e-30
  outer loop
    vertex 90.00000000000001 58.700000000000074 9.119702862792657e-15
    vertex 90.00000000000006 0.4000000000000424 6.699999999999944
    vertex 90.00000000000006 0.4000000000000303 2.2902187790341698e-14
  endloop
endfacet
facet normal 1.0 8.311480159088536e-16 -7.676082469361487e-30
  outer loop
    vertex 90.00000000000006 0.4000000000000424 6.699999999999944
    vertex 90.00000000000001 58.700000000000074 9.119702862792657e-15
    vertex 90.00000000000006 19.550000000000036 5.100000000000005
  endloop
endfacet
facet normal 1.0 8.311480159088536e-16 -7.676082469361487e-30
  outer loop
    vertex 90.00000000000006 19.550000000000036 5.100000000000005
    vertex 90.00000000000001 58.700000000000074 9.119702862792657e-15
    vertex 90.00000000000001 39.55000000000007 5.099999999999982
  endloop
endfacet
facet normal 1.0 8.311480159088536e-16 -7.676082469361487e-30
  outer loop
    vertex 90.00000000000001 39.55000000000007 5.099999999999982
    vertex 90.00000000000001 58.700000000000074 9.119702862792657e-15
    vertex 90.00000000000001 39.55000000000007 6.699999999999961
  endloop
endfacet
facet normal 1.0 8.311480159088536e-16 -7.676082469361487e-30
  outer loop
    vertex 90.00000000000001 39.55000000000007 6.699999999999961
    vertex 90.00000000000001 58.700000000000074 9.119702862792657e-15
    vertex 90.00000000000001 58.700000000000074 6.699999999999955
  endloop
endfacet
facet normal 1.0 8.311480159088536e-16 -7.676082469361487e-30
  outer loop
    vertex 90.00000000000006 19.550000000000036 6.699999999999954
    vertex 90.00000000000006 0.4000000000000424 6.699999999999944
    vertex 90.00000000000006 19.550000000000036 5.100000000000005
  endloop
endfacet
facet normal -1.0 -1.428840090754894e-15 -7.847251201016448e-16
  outer loop
    vertex 86.00000000000003 39.55000000000006 5.099999999999982
    vertex 86.00000000000004 31.050000000000015 4.000000000000018
    vertex 86.0000000000001 31.05000000000001 5.099999999999995
  endloop
endfacet
facet normal -1.0 -1.428840090754894e-15 -7.847251201016448e-16
  outer loop
    vertex 86.00000000000004 31.050000000000015 4.000000000000018
    vertex 86.00000000000003 39.55000000000006 5.099999999999982
    vertex 86.00000000000003 56.700000000000074 4.000000000000007
  endloop
endfacet
facet normal -1.0 -1.428840090754894e-15 -7.847251201016448e-16
  outer loop
    vertex 86.00000000000003 56.700000000000074 4.000000000000007
    vertex 86.00000000000003 39.55000000000006 5.099999999999982
    vertex 86.00000000000001 39.55000000000007 6.699999999999961
  endloop
endfacet
facet normal -1.0 -1.428840090754894e-15 -7.847251201016448e-16
  outer loop
    vertex 86.00000000000003 56.700000000000074 4.000000000000007
    vertex 86.00000000000001 39.55000000000007 6.699999999999961
    vertex 86.00000000000003 56.700000000000074 6.699999999999952
  endloop
endfacet
facet normal -1.0 5.6399329650958115e-15 6.558061587320735e-15
  outer loop
    vertex 88.00000000000009 31.05 5.099999999999945
    vertex 88.00000000000004 28.050000000000004 1.9999999999999745
    vertex 88.00000000000006 28.050000000000004 5.099999999999945
  endloop
endfacet
facet normal -1.0 5.6399329650958115e-15 6.558061587320735e-15
  outer loop
    vertex 88.00000000000004 28.050000000000004 1.9999999999999745
    vertex 88.00000000000009 31.05 5.099999999999945
    vertex 88.00000000000004 31.05 1.999999999999968
  endloop
endfacet
facet normal -2.1197821128083102e-16 1.0 -1.4928059799157296e-17
  outer loop
    vertex 2.38849238171448e-14 2.3999999999999795 4.000000000000048
    vertex 20.000000000000036 2.400000000000018 5.100000000000023
    vertex 70.00000000000006 2.400000000000036 5.100000000000019
  endloop
endfacet
facet normal -2.1197821128083102e-16 1.0 -1.4928059799157296e-17
  outer loop
    vertex 20.000000000000036 2.400000000000018 5.100000000000023
    vertex 2.38849238171448e-14 2.3999999999999795 4.000000000000048
    vertex 2.2763987140332042e-14 2.3999999999999577 6.699999999999962
  endloop
endfacet
facet normal -2.1197821128083102e-16 1.0 -1.4928059799157296e-17
  outer loop
    vertex 20.000000000000036 2.400000000000018 5.100000000000023
    vertex 2.2763987140332042e-14 2.3999999999999577 6.699999999999962
    vertex 20.000000000000036 2.4000000000000057 6.699999999999964
  endloop
endfacet
facet normal -2.1197821128083102e-16 1.0 -1.4928059799157296e-17
  outer loop
    vertex 86.00000000000007 2.3999999999999746 4.000000000000041
    vertex 70.00000000000006 2.400000000000036 5.100000000000019
    vertex 86.00000000000007 2.3999999999999737 6.699999999999955
  endloop
endfacet
facet normal -2.1197821128083102e-16 1.0 -1.4928059799157296e-17
  outer loop
    vertex 70.00000000000006 2.400000000000036 5.100000000000019
    vertex 86.00000000000007 2.3999999999999746 4.000000000000041
    vertex 2.38849238171448e-14 2.3999999999999795 4.000000000000048
  endloop
endfacet
facet normal -2.1197821128083102e-16 1.0 -1.4928059799157296e-17
  outer loop
    vertex 86.00000000000007 2.3999999999999737 6.699999999999955
    vertex 70.00000000000006 2.400000000000036 5.100000000000019
    vertex 70.00000000000006 2.400000000000035 6.699999999999968
  endloop
endfacet
facet normal 1.1071784360672981e-15 1.0 -1.5141794221151871e-15
  outer loop
    vertex 88.00000000000004 28.050000000000004 1.9999999999999745
    vertex 86.00000000000004 28.050000000000022 4.000000000000024
    vertex 88.00000000000006 28.050000000000004 5.099999999999945
  endloop
endfacet
facet normal 1.1071784360672981e-15 1.0 -1.5141794221151871e-15
  outer loop
    vertex 86.00000000000004 28.050000000000022 4.000000000000024
    vertex 88.00000000000004 28.050000000000004 1.9999999999999745
    vertex 76.00000000000004 28.050000000000022 2.0000000000000204
  endloop
endfacet
facet normal 1.1071784360672981e-15 1.0 -1.5141794221151871e-15
  outer loop
    vertex 86.00000000000004 28.050000000000022 4.000000000000024
    vertex 76.00000000000004 28.050000000000022 2.0000000000000204
    vertex 76.00000000000004 28.050000000000022 4.000000000000018
  endloop
endfacet
facet normal 1.1071784360672981e-15 1.0 -1.5141794221151871e-15
  outer loop
    vertex 88.00000000000006 28.050000000000004 5.099999999999945
    vertex 86.00000000000004 28.050000000000022 4.000000000000024
    vertex 86.00000000000006 28.050000000000022 5.099999999999995
  endloop
endfacet
facet normal 7.049916206369737e-16 -1.0 1.4099832412739509e-15
  outer loop
    vertex 90.00000000000001 39.55000000000007 6.699999999999961
    vertex 86.00000000000003 39.55000000000006 5.099999999999982
    vertex 90.00000000000001 39.55000000000007 5.099999999999982
  endloop
endfacet
facet normal 7.049916206369737e-16 -1.0 1.4099832412739509e-15
  outer loop
    vertex 86.00000000000003 39.55000000000006 5.099999999999982
    vertex 90.00000000000001 39.55000000000007 6.699999999999961
    vertex 86.00000000000001 39.55000000000007 6.699999999999961
  endloop
endfacet
facet normal -1.1507142023747478e-15 -1.0 1.0417753331137476e-15
  outer loop
    vertex 76.00000000000004 31.050000000000015 4.000000000000018
    vertex 76.00000000000004 31.050000000000015 2.0000000000000204
    vertex 86.00000000000004 31.050000000000015 4.000000000000018
  endloop
endfacet
facet normal -1.1507142023747478e-15 -1.0 1.0417753331137476e-15
  outer loop
    vertex 88.00000000000004 31.05 1.999999999999968
    vertex 86.00000000000004 31.050000000000015 4.000000000000018
    vertex 76.00000000000004 31.050000000000015 2.0000000000000204
  endloop
endfacet
facet normal -1.1507142023747478e-15 -1.0 1.0417753331137476e-15
  outer loop
    vertex 86.00000000000004 31.050000000000015 4.000000000000018
    vertex 88.00000000000004 31.05 1.999999999999968
    vertex 88.00000000000009 31.05 5.099999999999945
  endloop
endfacet
facet normal -1.1507142023747478e-15 -1.0 1.0417753331137476e-15
  outer loop
    vertex 86.00000000000004 31.050000000000015 4.000000000000018
    vertex 88.00000000000009 31.05 5.099999999999945
    vertex 86.0000000000001 31.05000000000001 5.099999999999995
  endloop
endfacet
facet normal -3.0172035315928107e-16 1.0 1.799344568558445e-30
  outer loop
    vertex 1.5306713825376612e-15 58.70000000000005 -7.197378274233781e-31
    vertex 20.000000000000014 58.70000000000005 5.099999999999991
    vertex 90.00000000000001 58.700000000000074 9.119702862792657e-15
  endloop
endfacet
facet normal -3.0172035315928107e-16 1.0 1.799344568558445e-30
  outer loop
    vertex 20.000000000000014 58.70000000000005 5.099999999999991
    vertex 1.5306713825376612e-15 58.70000000000005 -7.197378274233781e-31
    vertex 3.6743520848665347e-16 58.70000000000005 6.699999999999986
  endloop
endfacet
facet normal -3.0172035315928107e-16 1.0 1.799344568558445e-30
  outer loop
    vertex 90.00000000000001 58.700000000000074 9.119702862792657e-15
    vertex 20.000000000000014 58.70000000000005 5.099999999999991
    vertex 70.00000000000001 58.700000000000074 5.099999999999982
  endloop
endfacet
facet normal -3.0172035315928107e-16 1.0 1.799344568558445e-30
  outer loop
    vertex 20.000000000000014 58.70000000000005 5.099999999999991
    vertex 3.6743520848665347e-16 58.70000000000005 6.699999999999986
    vertex 20.000000000000014 58.70000000000005 6.699999999999992
  endloop
endfacet
facet normal -3.0172035315928107e-16 1.0 1.799344568558445e-30
  outer loop
    vertex 70.00000000000001 58.700000000000074 5.099999999999982
    vertex 90.00000000000001 58.700000000000074 6.699999999999955
    vertex 90.00000000000001 58.700000000000074 9.119702862792657e-15
  endloop
endfacet
facet normal -3.0172035315928107e-16 1.0 1.799344568558445e-30
  outer loop
    vertex 90.00000000000001 58.700000000000074 6.699999999999955
    vertex 70.00000000000001 58.700000000000074 5.099999999999982
    vertex 70.00000000000001 58.700000000000074 6.699999999999961
  endloop
endfacet
facet normal 2.4033805248988407e-15 1.0833428693651264e-15 1.0
  outer loop
    vertex 90.00000000000006 19.550000000000036 5.100000000000005
    vertex 86.00000000000006 28.050000000000022 5.099999999999995
    vertex 86.00000000000006 19.550000000000036 5.100000000000004
  endloop
endfacet
facet normal 2.4033805248988407e-15 1.0833428693651264e-15 1.0
  outer loop
    vertex 86.00000000000006 28.050000000000022 5.099999999999995
    vertex 90.00000000000006 19.550000000000036 5.100000000000005
    vertex 88.00000000000006 28.050000000000004 5.099999999999945
  endloop
endfacet
facet normal 2.4033805248988407e-15 1.0833428693651264e-15 1.0
  outer loop
    vertex 88.00000000000006 28.050000000000004 5.099999999999945
    vertex 90.00000000000006 19.550000000000036 5.100000000000005
    vertex 88.00000000000009 31.05 5.099999999999945
  endloop
endfacet
facet normal 2.4033805248988407e-15 1.0833428693651264e-15 1.0
  outer loop
    vertex 88.00000000000009 31.05 5.099999999999945
    vertex 90.00000000000006 19.550000000000036 5.100000000000005
    vertex 90.00000000000001 39.55000000000007 5.099999999999982
  endloop
endfacet
facet normal 2.4033805248988407e-15 1.0833428693651264e-15 1.0
  outer loop
    vertex 86.0000000000001 31.05000000000001 5.099999999999995
    vertex 90.00000000000001 39.55000000000007 5.099999999999982
    vertex 86.00000000000003 39.55000000000006 5.099999999999982
  endloop
endfacet
facet normal 2.4033805248988407e-15 1.0833428693651264e-15 1.0
  outer loop
    vertex 90.00000000000001 39.55000000000007 5.099999999999982
    vertex 86.0000000000001 31.05000000000001 5.099999999999995
    vertex 88.00000000000009 31.05 5.099999999999945
  endloop
endfacet
facet normal 1.8034669365132197e-16 -7.402412016688232e-15 1.0
  outer loop
    vertex 70.00000000000006 0.4000000000000361 5.100000000000005
    vertex 20.000000000000036 2.400000000000018 5.100000000000023
    vertex 20.000000000000036 0.4000000000000184 5.100000000000008
  endloop
endfacet
facet normal 1.8034669365132197e-16 -7.402412016688232e-15 1.0
  outer loop
    vertex 20.000000000000036 2.400000000000018 5.100000000000023
    vertex 70.00000000000006 0.4000000000000361 5.100000000000005
    vertex 70.00000000000006 2.400000000000036 5.100000000000019
  endloop
endfacet
facet normal 2.29532155556225e-16 -1.4099832412739513e-15 1.0
  outer loop
    vertex 70.00000000000001 56.700000000000074 5.099999999999982
    vertex 20.000000000000014 58.70000000000005 5.099999999999991
    vertex 20.000000000000014 56.70000000000005 5.099999999999985
  endloop
endfacet
facet normal 2.29532155556225e-16 -1.4099832412739513e-15 1.0
  outer loop
    vertex 20.000000000000014 58.70000000000005 5.099999999999991
    vertex 70.00000000000001 56.700000000000074 5.099999999999982
    vertex 70.00000000000001 58.700000000000074 5.099999999999982
  endloop
endfacet
facet normal 2.1176946102020443e-16 -1.0 3.7334998257700007e-16
  outer loop
    vertex 90.00000000000006 0.4000000000000424 6.699999999999944
    vertex 70.00000000000006 0.4000000000000361 5.100000000000005
    vertex 90.00000000000006 0.4000000000000303 2.2902187790341698e-14
  endloop
endfacet
facet normal 2.1176946102020443e-16 -1.0 3.7334998257700007e-16
  outer loop
    vertex 70.00000000000006 0.4000000000000361 5.100000000000005
    vertex 90.00000000000006 0.4000000000000424 6.699999999999944
    vertex 70.00000000000006 0.40000000000003555 6.699999999999954
  endloop
endfacet
facet normal 2.1176946102020443e-16 -1.0 3.7334998257700007e-16
  outer loop
    vertex 2.3885007317249046e-14 0.4000000000000212 2.502618997357447e-15
    vertex 20.000000000000036 0.4000000000000184 5.100000000000008
    vertex 2.276407064043629e-14 0.40000000000000324 6.699999999999945
  endloop
endfacet
facet normal 2.1176946102020443e-16 -1.0 3.7334998257700007e-16
  outer loop
    vertex 20.000000000000036 0.4000000000000184 5.100000000000008
    vertex 2.3885007317249046e-14 0.4000000000000212 2.502618997357447e-15
    vertex 90.00000000000006 0.4000000000000303 2.2902187790341698e-14
  endloop
endfacet
facet normal 2.1176946102020443e-16 -1.0 3.7334998257700007e-16
  outer loop
    vertex 20.000000000000036 0.4000000000000184 5.100000000000008
    vertex 90.00000000000006 0.4000000000000303 2.2902187790341698e-14
    vertex 70.00000000000006 0.4000000000000361 5.100000000000005
  endloop
endfacet
facet normal 2.1176946102020443e-16 -1.0 3.7334998257700007e-16
  outer loop
    vertex 2.276407064043629e-14 0.40000000000000324 6.699999999999945
    vertex 20.000000000000036 0.4000000000000184 5.100000000000008
    vertex 20.000000000000036 0.4000000000000057 6.699999999999949
  endloop
endfacet
facet normal -6.168676680573525e-16 -4.406197628981098e-15 1.0
  outer loop
    vertex 3.706658480933829e-16 56.70000000000005 6.699999999999975
    vertex 20.000000000000014 58.70000000000005 6.699999999999992
    vertex 3.6743520848665347e-16 58.70000000000005 6.699999999999986
  endloop
endfacet
facet normal -6.168676680573525e-16 -4.406197628981098e-15 1.0
  outer loop
    vertex 20.000000000000014 58.70000000000005 6.699999999999992
    vertex 3.706658480933829e-16 56.70000000000005 6.699999999999975
    vertex 20.000000000000014 56.70000000000005 6.699999999999986
  endloop
endfacet
facet normal 9.463636123358602e-17 6.303504790945137e-16 1.0
  outer loop
    vertex 2.38849238171448e-14 2.3999999999999795 4.000000000000048
    vertex 3.105828541230264 17.958890084531195 4.000000000000035
    vertex 1.4099832412739488e-14 17.55000000000001 4.0000000000000355
  endloop
endfacet
facet normal 9.463636123358602e-17 6.303504790945137e-16 1.0
  outer loop
    vertex 3.105828541230264 17.958890084531195 4.000000000000035
    vertex 2.38849238171448e-14 2.3999999999999795 4.000000000000048
    vertex 86.00000000000007 2.3999999999999746 4.000000000000041
  endloop
endfacet
facet normal 9.463636123358602e-17 6.303504790945137e-16 1.0
  outer loop
    vertex 3.105828541230264 17.958890084531195 4.000000000000035
    vertex 86.00000000000007 2.3999999999999746 4.000000000000041
    vertex 6.000000000000013 19.15769515458675 4.000000000000034
  endloop
endfacet
facet normal 9.463636123358602e-17 6.303504790945137e-16 1.0
  outer loop
    vertex 6.000000000000013 19.15769515458675 4.000000000000034
    vertex 86.00000000000007 2.3999999999999746 4.000000000000041
    vertex 8.485281374238584 21.064718625761444 4.000000000000032
  endloop
endfacet
facet normal 9.463636123358602e-17 6.303504790945137e-16 1.0
  outer loop
    vertex 8.485281374238584 21.064718625761444 4.000000000000032
    vertex 86.00000000000007 2.3999999999999746 4.000000000000041
    vertex 60.500000000000036 21.80000000000002 4.000000000000018
  endloop
endfacet
facet normal 9.463636123358602e-17 6.303504790945137e-16 1.0
  outer loop
    vertex 60.500000000000036 21.80000000000002 4.000000000000018
    vertex 86.00000000000007 2.3999999999999746 4.000000000000041
    vertex 76.00000000000004 21.80000000000002 4.000000000000018
  endloop
endfacet
facet normal 9.463636123358602e-17 6.303504790945137e-16 1.0
  outer loop
    vertex 76.00000000000004 21.80000000000002 4.000000000000018
    vertex 86.00000000000007 2.3999999999999746 4.000000000000041
    vertex 76.00000000000004 28.050000000000022 4.000000000000018
  endloop
endfacet
facet normal 9.463636123358602e-17 6.303504790945137e-16 1.0
  outer loop
    vertex 76.00000000000004 28.050000000000022 4.000000000000018
    vertex 86.00000000000007 2.3999999999999746 4.000000000000041
    vertex 86.00000000000004 28.050000000000022 4.000000000000024
  endloop
endfacet
facet normal 9.463636123358602e-17 6.303504790945137e-16 1.0
  outer loop
    vertex 86.00000000000004 31.050000000000015 4.000000000000018
    vertex 76.00000000000004 37.30000000000002 4.000000000000018
    vertex 76.00000000000004 31.050000000000015 4.000000000000018
  endloop
endfacet
facet normal 9.463636123358602e-17 6.303504790945137e-16 1.0
  outer loop
    vertex 76.00000000000004 37.30000000000002 4.000000000000018
    vertex 86.00000000000004 31.050000000000015 4.000000000000018
    vertex 86.00000000000003 56.700000000000074 4.000000000000007
  endloop
endfacet
facet normal 9.463636123358602e-17 6.303504790945137e-16 1.0
  outer loop
    vertex 9.86988268891764e-15 41.55000000000001 4.00000000000002
    vertex 86.00000000000003 56.700000000000074 4.000000000000007
    vertex 1.5339020221443907e-15 56.70000000000005 4.000000000000008
  endloop
endfacet
facet normal 9.463636123358602e-17 6.303504790945137e-16 1.0
  outer loop
    vertex 86.00000000000003 56.700000000000074 4.000000000000007
    vertex 9.86988268891764e-15 41.55000000000001 4.00000000000002
    vertex 3.1058285412302564 41.14110991546883 4.00000000000002
  endloop
endfacet
facet normal 9.463636123358602e-17 6.303504790945137e-16 1.0
  outer loop
    vertex 86.00000000000003 56.700000000000074 4.000000000000007
    vertex 3.1058285412302564 41.14110991546883 4.00000000000002
    vertex 6.0000000000000036 39.94230484541328 4.00000000000002
  endloop
endfacet
facet normal 9.463636123358602e-17 6.303504790945137e-16 1.0
  outer loop
    vertex 86.00000000000003 56.700000000000074 4.000000000000007
    vertex 6.0000000000000036 39.94230484541328 4.00000000000002
    vertex 8.485281374238582 38.035281374238586 4.000000000000021
  endloop
endfacet
facet normal 9.463636123358602e-17 6.303504790945137e-16 1.0
  outer loop
    vertex 86.00000000000003 56.700000000000074 4.000000000000007
    vertex 8.485281374238582 38.035281374238586 4.000000000000021
    vertex 8.485281374238584 21.064718625761444 4.000000000000032
  endloop
endfacet
facet normal 9.463636123358602e-17 6.303504790945137e-16 1.0
  outer loop
    vertex 86.00000000000003 56.700000000000074 4.000000000000007
    vertex 8.485281374238584 21.064718625761444 4.000000000000032
    vertex 60.500000000000036 37.30000000000002 4.000000000000018
  endloop
endfacet
facet normal 9.463636123358602e-17 6.303504790945137e-16 1.0
  outer loop
    vertex 60.500000000000036 37.30000000000002 4.000000000000018
    vertex 8.485281374238584 21.064718625761444 4.000000000000032
    vertex 60.500000000000036 21.80000000000002 4.000000000000018
  endloop
endfacet
facet normal 9.463636123358602e-17 6.303504790945137e-16 1.0
  outer loop
    vertex 86.00000000000003 56.700000000000074 4.000000000000007
    vertex 60.500000000000036 37.30000000000002 4.000000000000018
    vertex 76.00000000000004 37.30000000000002 4.000000000000018
  endloop
endfacet
facet normal 0.0 1.0 0.0
  outer loop
    vertex 86.00000000000006 19.550000000000036 6.699999999999954
    vertex 90.00000000000006 19.550000000000036 5.100000000000005
    vertex 86.00000000000006 19.550000000000036 5.100000000000004
  endloop
endfacet
facet normal 0.0 1.0 0.0
  outer loop
    vertex 90.00000000000006 19.550000000000036 5.100000000000005
    vertex 86.00000000000006 19.550000000000036 6.699999999999954
    vertex 90.00000000000006 19.550000000000036 6.699999999999954
  endloop
endfacet
facet normal 3.386477606274039e-16 3.4997798310192664e-16 1.0
  outer loop
    vertex 90.00000000000001 39.55000000000007 6.699999999999961
    vertex 86.00000000000003 56.700000000000074 6.699999999999952
    vertex 86.00000000000001 39.55000000000007 6.699999999999961
  endloop
endfacet
facet normal 3.386477606274039e-16 3.4997798310192664e-16 1.0
  outer loop
    vertex 86.00000000000003 56.700000000000074 6.699999999999952
    vertex 70.00000000000001 58.700000000000074 6.699999999999961
    vertex 70.00000000000001 56.700000000000074 6.699999999999961
  endloop
endfacet
facet normal 3.386477606274039e-16 3.4997798310192664e-16 1.0
  outer loop
    vertex 70.00000000000001 58.700000000000074 6.699999999999961
    vertex 86.00000000000003 56.700000000000074 6.699999999999952
    vertex 90.00000000000001 58.700000000000074 6.699999999999955
  endloop
endfacet
facet normal 3.386477606274039e-16 3.4997798310192664e-16 1.0
  outer loop
    vertex 90.00000000000001 58.700000000000074 6.699999999999955
    vertex 86.00000000000003 56.700000000000074 6.699999999999952
    vertex 90.00000000000001 39.55000000000007 6.699999999999961
  endloop
endfacet
facet normal -1.0 -5.487071345709815e-16 -1.0952503429877217e-16
  outer loop
    vertex 2.2763987140332042e-14 2.3999999999999577 6.699999999999962
    vertex 2.3885007317249046e-14 0.4000000000000212 2.502618997357447e-15
    vertex 2.276407064043629e-14 0.40000000000000324 6.699999999999945
  endloop
endfacet
facet normal -1.0 -5.487071345709815e-16 -1.0952503429877217e-16
  outer loop
    vertex 2.3885007317249046e-14 0.4000000000000212 2.502618997357447e-15
    vertex 2.2763987140332042e-14 2.3999999999999577 6.699999999999962
    vertex 2.38849238171448e-14 2.3999999999999795 4.000000000000048
  endloop
endfacet
facet normal -1.0 -5.487071345709815e-16 -1.0952503429877217e-16
  outer loop
    vertex 2.3885007317249046e-14 0.4000000000000212 2.502618997357447e-15
    vertex 2.38849238171448e-14 2.3999999999999795 4.000000000000048
    vertex 1.4099832412739488e-14 17.55000000000001 1.653039851154587e-14
  endloop
endfacet
facet normal -1.0 -5.487071345709815e-16 -1.0952503429877217e-16
  outer loop
    vertex 1.4099832412739488e-14 17.55000000000001 1.653039851154587e-14
    vertex 2.38849238171448e-14 2.3999999999999795 4.000000000000048
    vertex 1.4099832412739488e-14 17.55000000000001 4.0000000000000355
  endloop
endfacet
facet normal -0.3826834323650898 0.9238795325112867 -5.363963551111505e-16
  outer loop
    vertex 3.105828541230264 17.958890084531195 1.5825406890908893e-14
    vertex 6.000000000000013 19.15769515458675 4.000000000000034
    vertex 6.000000000000013 19.15769515458675 1.4415423649634946e-14
  endloop
endfacet
facet normal -0.3826834323650898 0.9238795325112867 -5.363963551111505e-16
  outer loop
    vertex 6.000000000000013 19.15769515458675 4.000000000000034
    vertex 3.105828541230264 17.958890084531195 1.5825406890908893e-14
    vertex 3.105828541230264 17.958890084531195 4.000000000000035
  endloop
endfacet
facet normal 1.0 -1.7395461480892195e-30 6.168676680573525e-16
  outer loop
    vertex 20.000000000000014 58.70000000000005 5.099999999999991
    vertex 20.000000000000014 56.70000000000005 6.699999999999986
    vertex 20.000000000000014 56.70000000000005 5.099999999999985
  endloop
endfacet
facet normal 1.0 -1.7395461480892195e-30 6.168676680573525e-16
  outer loop
    vertex 20.000000000000014 56.70000000000005 6.699999999999986
    vertex 20.000000000000014 58.70000000000005 5.099999999999991
    vertex 20.000000000000014 58.70000000000005 6.699999999999992
  endloop
endfacet
facet normal -0.6087614290087212 0.7933533402912347 -4.2586666366033616e-16
  outer loop
    vertex 6.000000000000013 19.15769515458675 1.4415423649634946e-14
    vertex 8.485281374238584 21.064718625761444 4.000000000000032
    vertex 8.485281374238584 21.064718625761444 1.3005440408360996e-14
  endloop
endfacet
facet normal -0.6087614290087212 0.7933533402912347 -4.2586666366033616e-16
  outer loop
    vertex 8.485281374238584 21.064718625761444 4.000000000000032
    vertex 6.000000000000013 19.15769515458675 1.4415423649634946e-14
    vertex 6.000000000000013 19.15769515458675 4.000000000000034
  endloop
endfacet
facet normal 1.230764678472873e-16 -1.784238052229379e-16 -1.0
  outer loop
    vertex 90.00000000000001 58.700000000000074 9.119702862792657e-15
    vertex 9.86988268891764e-15 41.55000000000001 1.0205828575324338e-15
    vertex 1.5306713825376612e-15 58.70000000000005 -7.197378274233781e-31
  endloop
endfacet
facet normal 1.230764678472873e-16 -1.784238052229379e-16 -1.0
  outer loop
    vertex 9.86988268891764e-15 41.55000000000001 1.0205828575324338e-15
    vertex 90.00000000000001 58.700000000000074 9.119702862792657e-15
    vertex 3.1058285412302564 41.14110991546883 1.0205828575324338e-15
  endloop
endfacet
facet normal 1.230764678472873e-16 -1.784238052229379e-16 -1.0
  outer loop
    vertex 3.1058285412302564 41.14110991546883 1.0205828575324338e-15
    vertex 90.00000000000001 58.700000000000074 9.119702862792657e-15
    vertex 6.000000000000003 39.94230484541328 1.7255744781694082e-15
  endloop
endfacet
facet normal 1.230764678472873e-16 -1.784238052229379e-16 -1.0
  outer loop
    vertex 6.000000000000003 39.94230484541328 1.7255744781694082e-15
    vertex 90.00000000000001 58.700000000000074 9.119702862792657e-15
    vertex 8.485281374238582 38.035281374238586 2.4305660988063827e-15
  endloop
endfacet
facet normal 1.230764678472873e-16 -1.784238052229379e-16 -1.0
  outer loop
    vertex 8.485281374238582 38.035281374238586 2.4305660988063827e-15
    vertex 90.00000000000001 58.700000000000074 9.119702862792657e-15
    vertex 8.485281374238584 21.064718625761444 1.3005440408360996e-14
  endloop
endfacet
facet normal 1.230764678472873e-16 -1.784238052229379e-16 -1.0
  outer loop
    vertex 3.105828541230264 17.958890084531195 1.5825406890908893e-14
    vertex 2.3885007317249046e-14 0.4000000000000212 2.502618997357447e-15
    vertex 1.4099832412739488e-14 17.55000000000001 1.653039851154587e-14
  endloop
endfacet
facet normal 1.230764678472873e-16 -1.784238052229379e-16 -1.0
  outer loop
    vertex 2.3885007317249046e-14 0.4000000000000212 2.502618997357447e-15
    vertex 3.105828541230264 17.958890084531195 1.5825406890908893e-14
    vertex 90.00000000000006 0.4000000000000303 2.2902187790341698e-14
  endloop
endfacet
facet normal 1.230764678472873e-16 -1.784238052229379e-16 -1.0
  outer loop
    vertex 90.00000000000006 0.4000000000000303 2.2902187790341698e-14
    vertex 3.105828541230264 17.958890084531195 1.5825406890908893e-14
    vertex 6.000000000000013 19.15769515458675 1.4415423649634946e-14
  endloop
endfacet
facet normal 1.230764678472873e-16 -1.784238052229379e-16 -1.0
  outer loop
    vertex 90.00000000000006 0.4000000000000303 2.2902187790341698e-14
    vertex 6.000000000000013 19.15769515458675 1.4415423649634946e-14
    vertex 8.485281374238584 21.064718625761444 1.3005440408360996e-14
  endloop
endfacet
facet normal 1.230764678472873e-16 -1.784238052229379e-16 -1.0
  outer loop
    vertex 90.00000000000006 0.4000000000000303 2.2902187790341698e-14
    vertex 8.485281374238584 21.064718625761444 1.3005440408360996e-14
    vertex 90.00000000000001 58.700000000000074 9.119702862792657e-15
  endloop
endfacet
facet normal -1.0 -8.308405927201634e-17 1.2403394000663903e-16
  outer loop
    vertex 8.485281374238582 38.035281374238586 4.000000000000021
    vertex 8.485281374238584 21.064718625761444 1.3005440408360996e-14
    vertex 8.485281374238584 21.064718625761444 4.000000000000032
  endloop
endfacet
facet normal -1.0 -8.308405927201634e-17 1.2403394000663903e-16
  outer loop
    vertex 8.485281374238584 21.064718625761444 1.3005440408360996e-14
    vertex 8.485281374238582 38.035281374238586 4.000000000000021
    vertex 8.485281374238582 38.035281374238586 2.4305660988063827e-15
  endloop
endfacet
facet normal -0.38268343236508845 -0.9238795325112873 6.31327822894163e-16
  outer loop
    vertex 6.000000000000003 39.94230484541328 1.7255744781694082e-15
    vertex 3.1058285412302564 41.14110991546883 4.00000000000002
    vertex 3.1058285412302564 41.14110991546883 1.0205828575324338e-15
  endloop
endfacet
facet normal -0.38268343236508845 -0.9238795325112873 6.31327822894163e-16
  outer loop
    vertex 3.1058285412302564 41.14110991546883 4.00000000000002
    vertex 6.000000000000003 39.94230484541328 1.7255744781694082e-15
    vertex 6.0000000000000036 39.94230484541328 4.00000000000002
  endloop
endfacet
facet normal -0.13052619222005188 -0.9914448613738105 0.0
  outer loop
    vertex 3.1058285412302564 41.14110991546883 4.00000000000002
    vertex 9.86988268891764e-15 41.55000000000001 1.0205828575324338e-15
    vertex 3.1058285412302564 41.14110991546883 1.0205828575324338e-15
  endloop
endfacet
facet normal -0.13052619222005188 -0.9914448613738105 0.0
  outer loop
    vertex 9.86988268891764e-15 41.55000000000001 1.0205828575324338e-15
    vertex 3.1058285412302564 41.14110991546883 4.00000000000002
    vertex 9.86988268891764e-15 41.55000000000001 4.00000000000002
  endloop
endfacet
facet normal -0.6087614290087199 -0.7933533402912356 5.768808207883837e-16
  outer loop
    vertex 8.485281374238582 38.035281374238586 2.4305660988063827e-15
    vertex 6.0000000000000036 39.94230484541328 4.00000000000002
    vertex 6.000000000000003 39.94230484541328 1.7255744781694082e-15
  endloop
endfacet
facet normal -0.6087614290087199 -0.7933533402912356 5.768808207883837e-16
  outer loop
    vertex 6.0000000000000036 39.94230484541328 4.00000000000002
    vertex 8.485281374238582 38.035281374238586 2.4305660988063827e-15
    vertex 8.485281374238582 38.035281374238586 4.000000000000021
  endloop
endfacet
facet normal -0.13052619222005174 0.9914448613738105 -9.227010057047763e-19
  outer loop
    vertex 1.4099832412739488e-14 17.55000000000001 1.653039851154587e-14
    vertex 3.105828541230264 17.958890084531195 4.000000000000035
    vertex 3.105828541230264 17.958890084531195 1.5825406890908893e-14
  endloop
endfacet
facet normal -0.13052619222005174 0.9914448613738105 -9.227010057047763e-19
  outer loop
    vertex 3.105828541230264 17.958890084531195 4.000000000000035
    vertex 1.4099832412739488e-14 17.55000000000001 1.653039851154587e-14
    vertex 1.4099832412739488e-14 17.55000000000001 4.0000000000000355
  endloop
endfacet
facet normal 0.0 -1.0 0.0
  outer loop
    vertex 76.00000000000004 37.30000000000002 4.000000000000018
    vertex 60.500000000000036 37.30000000000002 0.8000000000000194
    vertex 76.00000000000004 37.30000000000002 0.8000000000000194
  endloop
endfacet
facet normal 0.0 -1.0 0.0
  outer loop
    vertex 60.500000000000036 37.30000000000002 0.8000000000000194
    vertex 76.00000000000004 37.30000000000002 4.000000000000018
    vertex 60.500000000000036 37.30000000000002 4.000000000000018
  endloop
endfacet
facet normal 0.0 1.0 0.0
  outer loop
    vertex 60.500000000000036 21.80000000000002 4.000000000000018
    vertex 76.00000000000004 21.80000000000002 0.8000000000000194
    vertex 60.500000000000036 21.80000000000002 0.8000000000000194
  endloop
endfacet
facet normal 0.0 1.0 0.0
  outer loop
    vertex 76.00000000000004 21.80000000000002 0.8000000000000194
    vertex 60.500000000000036 21.80000000000002 4.000000000000018
    vertex 76.00000000000004 21.80000000000002 4.000000000000018
  endloop
endfacet
facet normal 1.0 0.0 0.0
  outer loop
    vertex 60.500000000000036 37.30000000000002 0.8000000000000194
    vertex 60.500000000000036 21.80000000000002 4.000000000000018
    vertex 60.500000000000036 21.80000000000002 0.8000000000000194
  endloop
endfacet
facet normal 1.0 0.0 0.0
  outer loop
    vertex 60.500000000000036 21.80000000000002 4.000000000000018
    vertex 60.500000000000036 37.30000000000002 0.8000000000000194
    vertex 60.500000000000036 37.30000000000002 4.000000000000018
  endloop
endfacet
facet normal 1.0 -5.603823662773052e-30 7.226164111528899e-16
  outer loop
    vertex 20.000000000000036 0.4000000000000184 5.100000000000008
    vertex 20.000000000000036 2.4000000000000057 6.699999999999964
    vertex 20.000000000000036 0.4000000000000057 6.699999999999949
  endloop
endfacet
facet normal 1.0 -5.603823662773052e-30 7.226164111528899e-16
  outer loop
    vertex 20.000000000000036 2.4000000000000057 6.699999999999964
    vertex 20.000000000000036 0.4000000000000184 5.100000000000008
    vertex 20.000000000000036 2.400000000000018 5.100000000000023
  endloop
endfacet
facet normal -1.0 -6.172763017428387e-16 5.911038694762824e-16
  outer loop
    vertex 86.00000000000006 19.550000000000036 6.699999999999954
    vertex 86.00000000000007 2.3999999999999746 4.000000000000041
    vertex 86.00000000000007 2.3999999999999737 6.699999999999955
  endloop
endfacet
facet normal -1.0 -6.172763017428387e-16 5.911038694762824e-16
  outer loop
    vertex 86.00000000000007 2.3999999999999746 4.000000000000041
    vertex 86.00000000000006 19.550000000000036 6.699999999999954
    vertex 86.00000000000006 19.550000000000036 5.100000000000004
  endloop
endfacet
facet normal -1.0 -6.172763017428387e-16 5.911038694762824e-16
  outer loop
    vertex 86.00000000000007 2.3999999999999746 4.000000000000041
    vertex 86.00000000000006 19.550000000000036 5.100000000000004
    vertex 86.00000000000004 28.050000000000022 4.000000000000024
  endloop
endfacet
facet normal -1.0 -6.172763017428387e-16 5.911038694762824e-16
  outer loop
    vertex 86.00000000000004 28.050000000000022 4.000000000000024
    vertex 86.00000000000006 19.550000000000036 5.100000000000004
    vertex 86.00000000000006 28.050000000000022 5.099999999999995
  endloop
endfacet
facet normal 6.70371496409265e-16 -2.958446979458719e-16 1.0
  outer loop
    vertex 90.00000000000006 0.4000000000000424 6.699999999999944
    vertex 70.00000000000006 2.400000000000035 6.699999999999968
    vertex 70.00000000000006 0.40000000000003555 6.699999999999954
  endloop
endfacet
facet normal 6.70371496409265e-16 -2.958446979458719e-16 1.0
  outer loop
    vertex 70.00000000000006 2.400000000000035 6.699999999999968
    vertex 90.00000000000006 0.4000000000000424 6.699999999999944
    vertex 86.00000000000007 2.3999999999999737 6.699999999999955
  endloop
endfacet
facet normal 6.70371496409265e-16 -2.958446979458719e-16 1.0
  outer loop
    vertex 86.00000000000007 2.3999999999999737 6.699999999999955
    vertex 90.00000000000006 19.550000000000036 6.699999999999954
    vertex 86.00000000000006 19.550000000000036 6.699999999999954
  endloop
endfacet
facet normal 6.70371496409265e-16 -2.958446979458719e-16 1.0
  outer loop
    vertex 90.00000000000006 19.550000000000036 6.699999999999954
    vertex 86.00000000000007 2.3999999999999737 6.699999999999955
    vertex 90.00000000000006 0.4000000000000424 6.699999999999944
  endloop
endfacet
facet normal -7.226164111528898e-16 -7.93115573216605e-15 1.0
  outer loop
    vertex 2.276407064043629e-14 0.40000000000000324 6.699999999999945
    vertex 20.000000000000036 2.4000000000000057 6.699999999999964
    vertex 2.2763987140332042e-14 2.3999999999999577 6.699999999999962
  endloop
endfacet
facet normal -7.226164111528898e-16 -7.93115573216605e-15 1.0
  outer loop
    vertex 20.000000000000036 2.4000000000000057 6.699999999999964
    vertex 2.276407064043629e-14 0.40000000000000324 6.699999999999945
    vertex 20.000000000000036 0.4000000000000057 6.699999999999949
  endloop
endfacet
facet normal -1.0 -5.027521765055871e-16 -2.2303624835538215e-16
  outer loop
    vertex 3.6743520848665347e-16 58.70000000000005 6.699999999999986
    vertex 1.5339020221443907e-15 56.70000000000005 4.000000000000008
    vertex 3.706658480933829e-16 56.70000000000005 6.699999999999975
  endloop
endfacet
facet normal -1.0 -5.027521765055871e-16 -2.2303624835538215e-16
  outer loop
    vertex 1.5339020221443907e-15 56.70000000000005 4.000000000000008
    vertex 9.86988268891764e-15 41.55000000000001 1.0205828575324338e-15
    vertex 9.86988268891764e-15 41.55000000000001 4.00000000000002
  endloop
endfacet
facet normal -1.0 -5.027521765055871e-16 -2.2303624835538215e-16
  outer loop
    vertex 9.86988268891764e-15 41.55000000000001 1.0205828575324338e-15
    vertex 1.5339020221443907e-15 56.70000000000005 4.000000000000008
    vertex 1.5306713825376612e-15 58.70000000000005 -7.197378274233781e-31
  endloop
endfacet
facet normal -1.0 -5.027521765055871e-16 -2.2303624835538215e-16
  outer loop
    vertex 1.5306713825376612e-15 58.70000000000005 -7.197378274233781e-31
    vertex 1.5339020221443907e-15 56.70000000000005 4.000000000000008
    vertex 3.6743520848665347e-16 58.70000000000005 6.699999999999986
  endloop
endfacet
facet normal -1.0 -4.726062876824015e-30 6.703714964092652e-16
  outer loop
    vertex 70.00000000000006 2.400000000000035 6.699999999999968
    vertex 70.00000000000006 0.4000000000000361 5.100000000000005
    vertex 70.00000000000006 0.40000000000003555 6.699999999999954
  endloop
endfacet
facet normal -1.0 -4.726062876824015e-30 6.703714964092652e-16
  outer loop
    vertex 70.00000000000006 0.4000000000000361 5.100000000000005
    vertex 70.00000000000006 2.400000000000035 6.699999999999968
    vertex 70.00000000000006 2.400000000000036 5.100000000000019
  endloop
endfacet
facet normal -1.0 0.0 3.386477606274039e-16
  outer loop
    vertex 70.00000000000001 58.700000000000074 6.699999999999961
    vertex 70.00000000000001 56.700000000000074 5.099999999999982
    vertex 70.00000000000001 56.700000000000074 6.699999999999961
  endloop
endfacet
facet normal -1.0 0.0 3.386477606274039e-16
  outer loop
    vertex 70.00000000000001 56.700000000000074 5.099999999999982
    vertex 70.00000000000001 58.700000000000074 6.699999999999961
    vertex 70.00000000000001 58.700000000000074 5.099999999999982
  endloop
endfacet
facet normal 3.0979695217610484e-16 -1.0 -4.794606365018981e-17
  outer loop
    vertex 86.00000000000003 56.700000000000074 4.000000000000007
    vertex 70.00000000000001 56.700000000000074 5.099999999999982
    vertex 1.5339020221443907e-15 56.70000000000005 4.000000000000008
  endloop
endfacet
facet normal 3.0979695217610484e-16 -1.0 -4.794606365018981e-17
  outer loop
    vertex 70.00000000000001 56.700000000000074 5.099999999999982
    vertex 86.00000000000003 56.700000000000074 4.000000000000007
    vertex 86.00000000000003 56.700000000000074 6.699999999999952
  endloop
endfacet
facet normal 3.0979695217610484e-16 -1.0 -4.794606365018981e-17
  outer loop
    vertex 70.00000000000001 56.700000000000074 5.099999999999982
    vertex 86.00000000000003 56.700000000000074 6.699999999999952
    vertex 70.00000000000001 56.700000000000074 6.699999999999961
  endloop
endfacet
facet normal 3.0979695217610484e-16 -1.0 -4.794606365018981e-17
  outer loop
    vertex 1.5339020221443907e-15 56.70000000000005 4.000000000000008
    vertex 20.000000000000014 56.70000000000005 5.099999999999985
    vertex 3.706658480933829e-16 56.70000000000005 6.699999999999975
  endloop
endfacet
facet normal 3.0979695217610484e-16 -1.0 -4.794606365018981e-17
  outer loop
    vertex 20.000000000000014 56.70000000000005 5.099999999999985
    vertex 1.5339020221443907e-15 56.70000000000005 4.000000000000008
    vertex 70.00000000000001 56.700000000000074 5.099999999999982
  endloop
endfacet
facet normal 3.0979695217610484e-16 -1.0 -4.794606365018981e-17
  outer loop
    vertex 3.706658480933829e-16 56.70000000000005 6.699999999999975
    vertex 20.000000000000014 56.70000000000005 5.099999999999985
    vertex 20.000000000000014 56.70000000000005 6.699999999999986
  endloop
endfacet
facet normal -4.5483330363675736e-17 -9.166524328475294e-33 1.0
  outer loop
    vertex 76.00000000000004 21.80000000000002 0.8000000000000194
    vertex 60.500000000000036 37.30000000000002 0.8000000000000194
    vertex 60.500000000000036 21.80000000000002 0.8000000000000194
  endloop
endfacet
facet normal -4.5483330363675736e-17 -9.166524328475294e-33 1.0
  outer loop
    vertex 60.500000000000036 37.30000000000002 0.8000000000000194
    vertex 76.00000000000004 21.80000000000002 0.8000000000000194
    vertex 76.00000000000004 37.30000000000002 0.8000000000000194
  endloop
endfacet
facet normal 4.083076469522478e-15 1.0574874309554628e-15 1.0
  outer loop
    vertex 88.00000000000004 28.050000000000004 1.9999999999999745
    vertex 76.00000000000004 31.050000000000015 2.0000000000000204
    vertex 76.00000000000004 28.050000000000022 2.0000000000000204
  endloop
endfacet
facet normal 4.083076469522478e-15 1.0574874309554628e-15 1.0
  outer loop
    vertex 76.00000000000004 31.050000000000015 2.0000000000000204
    vertex 88.00000000000004 28.050000000000004 1.9999999999999745
    vertex 88.00000000000004 31.05 1.999999999999968
  endloop
endfacet
facet normal -1.0 0.0 0.0
  outer loop
    vertex 76.00000000000004 37.30000000000002 4.000000000000018
    vertex 76.00000000000004 31.050000000000015 2.0000000000000204
    vertex 76.00000000000004 31.050000000000015 4.000000000000018
  endloop
endfacet
facet normal -1.0 0.0 0.0
  outer loop
    vertex 76.00000000000004 28.050000000000022 4.000000000000018
    vertex 76.00000000000004 21.80000000000002 0.8000000000000194
    vertex 76.00000000000004 21.80000000000002 4.000000000000018
  endloop
endfacet
facet normal -1.0 0.0 0.0
  outer loop
    vertex 76.00000000000004 21.80000000000002 0.8000000000000194
    vertex 76.00000000000004 28.050000000000022 4.000000000000018
    vertex 76.00000000000004 28.050000000000022 2.0000000000000204
  endloop
endfacet
facet normal -1.0 0.0 0.0
  outer loop
    vertex 76.00000000000004 21.80000000000002 0.8000000000000194
    vertex 76.00000000000004 28.050000000000022 2.0000000000000204
    vertex 76.00000000000004 37.30000000000002 0.8000000000000194
  endloop
endfacet
facet normal -1.0 0.0 0.0
  outer loop
    vertex 76.00000000000004 37.30000000000002 0.8000000000000194
    vertex 76.00000000000004 28.050000000000022 2.0000000000000204
    vertex 76.00000000000004 31.050000000000015 2.0000000000000204
  endloop
endfacet
facet normal -1.0 0.0 0.0
  outer loop
    vertex 76.00000000000004 37.30000000000002 0.8000000000000194
    vertex 76.00000000000004 31.050000000000015 2.0000000000000204
    vertex 76.00000000000004 37.30000000000002 4.000000000000018
  endloop
endfacet
endsolid MintCrisprV0.1
